<?xml version="1.0" encoding="UTF-8"?>
<svg width="300px" height="300px" viewBox="0 0 300 300" version="1.1" xmlns="http://www.w3.org/2000/svg" xmlns:xlink="http://www.w3.org/1999/xlink">
    <!-- Generator: Sketch 41 (35326) - http://www.bohemiancoding.com/sketch -->
    <title>Group</title>
    <desc>Created with Sketch.</desc>
    <defs></defs>
    <g id="Page-1" stroke="none" stroke-width="1" fill="none" fill-rule="evenodd">
        <g id="Group">
            <path d="M300,150 C300,177.213542 293.294271,202.311198 279.882812,225.292969 C266.471354,248.27474 248.27474,266.471354 225.292969,279.882812 C202.311198,293.294271 177.213542,300 150,300 C122.786458,300 97.6888021,293.294271 74.7070312,279.882812 C51.7252604,266.471354 33.5286458,248.27474 20.1171875,225.292969 C6.70572917,202.311198 0,177.213542 0,150 C0,122.786458 6.70572917,97.6888021 20.1171875,74.7070312 C33.5286458,51.7252604 51.7252604,33.5286458 74.7070312,20.1171875 C97.6888021,6.70572917 122.786458,0 150,0 C177.213542,0 202.311198,6.70572917 225.292969,20.1171875 C248.27474,33.5286458 266.471354,51.7252604 279.882812,74.7070312 C293.294271,97.6888021 300,122.786458 300,150 Z" id="Shape" fill="#57BF5A"></path>
            <path d="M250.78125,118.359375 C250.78125,114.713542 249.609375,111.71875 247.265625,109.375 L229.492188,91.796875 C227.018229,89.3229167 224.088542,88.0859375 220.703125,88.0859375 C217.317708,88.0859375 214.388021,89.3229167 211.914062,91.796875 L132.226562,171.289062 L88.0859375,127.148438 C85.6119792,124.674479 82.6822917,123.4375 79.296875,123.4375 C75.9114583,123.4375 72.9817708,124.674479 70.5078125,127.148438 L52.734375,144.726562 C50.390625,147.070312 49.21875,150.065104 49.21875,153.710938 C49.21875,157.226562 50.390625,160.15625 52.734375,162.5 L123.4375,233.203125 C125.911458,235.677083 128.841146,236.914062 132.226562,236.914062 C135.742188,236.914062 138.736979,235.677083 141.210938,233.203125 L247.265625,127.148438 C249.609375,124.804688 250.78125,121.875 250.78125,118.359375 Z" id="Path" fill="#FFFFFF"></path>
        </g>
    </g>
</svg>