<?xml version="1.0" encoding="UTF-8"?>
<svg width="1536px" height="1536px" viewBox="0 0 1536 1536" version="1.1" xmlns="http://www.w3.org/2000/svg" xmlns:xlink="http://www.w3.org/1999/xlink">
    <!-- Generator: Sketch 41 (35326) - http://www.bohemiancoding.com/sketch -->
    <title>Shape</title>
    <desc>Created with Sketch.</desc>
    <defs></defs>
    <g id="Page-1" stroke="none" stroke-width="1" fill="none" fill-rule="evenodd">
        <path d="M768,128 C681.333333,128 598.5,145 519.5,179 C440.5,213 372.5,258.5 315.5,315.5 C258.5,372.5 213,440.5 179,519.5 C145,598.5 128,681.333333 128,768 C128,854.666667 145,937.5 179,1016.5 C213,1095.5 258.5,1163.5 315.5,1220.5 C372.5,1277.5 440.5,1323 519.5,1357 C598.5,1391 681.333333,1408 768,1408 C854.666667,1408 937.5,1391 1016.5,1357 C1095.5,1323 1163.5,1277.5 1220.5,1220.5 C1277.5,1163.5 1323,1095.5 1357,1016.5 C1391,937.5 1408,854.666667 1408,768 C1408,681.333333 1391,598.5 1357,519.5 C1323,440.5 1277.5,372.5 1220.5,315.5 C1163.5,258.5 1095.5,213 1016.5,179 C937.5,145 854.666667,128 768,128 Z M1536,768 C1536,907.333333 1501.66667,1035.83333 1433,1153.5 C1364.33333,1271.16667 1271.16667,1364.33333 1153.5,1433 C1035.83333,1501.66667 907.333333,1536 768,1536 C628.666667,1536 500.166667,1501.66667 382.5,1433 C264.833333,1364.33333 171.666667,1271.16667 103,1153.5 C34.3333333,1035.83333 0,907.333333 0,768 C0,628.666667 34.3333333,500.166667 103,382.5 C171.666667,264.833333 264.833333,171.666667 382.5,103 C500.166667,34.3333333 628.666667,0 768,0 C907.333333,0 1035.83333,34.3333333 1153.5,103 C1271.16667,171.666667 1364.33333,264.833333 1433,382.5 C1501.66667,500.166667 1536,628.666667 1536,768 Z" id="Shape" fill="#E9E9E9"></path>
    </g>
</svg>