<?xml version="1.0" encoding="UTF-8"?>
<svg width="183px" height="59px" viewBox="0 0 183 59" version="1.1" xmlns="http://www.w3.org/2000/svg" xmlns:xlink="http://www.w3.org/1999/xlink">
    <!-- Generator: Sketch 41 (35326) - http://www.bohemiancoding.com/sketch -->
    <title>глобус</title>
    <desc>Created with Sketch.</desc>
    <defs></defs>
    <g id="Page-1" stroke="none" stroke-width="1" fill="none" fill-rule="evenodd">
        <path d="M18.9943594,26.16 C20.3383594,26.16 21.4263594,25.072 21.4263594,23.728 L21.4263594,19.632 C21.4263594,18.288 20.3383594,17.2 18.9943594,17.2 L3.37835937,17.2 C2.03435937,17.2 0.946359375,18.288 0.946359375,19.632 L0.946359375,43.568 C0.946359375,44.912 2.03435937,46 3.37835937,46 L8.11435937,46 C9.45835937,46 10.5463594,44.912 10.5463594,43.568 L10.5463594,26.16 L18.9943594,26.16 Z M50.8783594,19.632 C50.8783594,18.288 49.7903594,17.2 48.4463594,17.2 L29.6943594,17.2 C28.3503594,17.2 27.1983594,18.288 27.1343594,19.632 L26.8143594,26.16 C26.4943594,33.328 25.2783594,36.016 23.1663594,37.04 C21.3103594,38 21.0543594,38.512 21.0543594,40.88 L21.0543594,44.208 C21.0543594,45.552 22.2703594,46.64 23.8063594,46.64 C27.5823594,46.64 30.4623594,45.232 32.3823594,42.48 C34.2383594,39.728 35.5183594,34.928 36.0943594,28.208 L36.2223594,26.8 L41.2783594,26.8 L41.2783594,43.568 C41.2783594,44.912 42.3663594,46 43.7103594,46 L48.4463594,46 C49.7903594,46 50.8783594,44.912 50.8783594,43.568 L50.8783594,19.632 Z M60.2343594,42.48 C63.1143594,45.36 67.0183594,46.768 71.8183594,46.768 C76.6183594,46.768 80.5223594,45.36 83.4663594,42.48 C86.3463594,39.6 87.8183594,36.016 87.8183594,31.6 C87.8183594,27.184 86.3463594,23.6 83.4663594,20.72 C80.5223594,17.84 76.6183594,16.432 71.8183594,16.432 C67.0183594,16.432 63.1143594,17.84 60.2343594,20.72 C57.2903594,23.6 55.8183594,27.184 55.8183594,31.6 C55.8183594,36.016 57.2903594,39.6 60.2343594,42.48 Z M66.0583594,31.6 C66.0583594,27.824 68.5543594,25.392 71.8183594,25.392 C75.0823594,25.392 77.5783594,27.952 77.5783594,31.6 C77.5783594,35.44 75.1463594,37.808 71.8183594,37.808 C68.4903594,37.808 66.0583594,35.184 66.0583594,31.6 Z M122.134359,31.856 C122.134359,27.568 120.982359,24.176 118.614359,21.616 C116.246359,19.12 113.174359,17.84 109.398359,17.84 C105.878359,17.84 102.294359,19.568 100.502359,21.872 C100.886359,18.352 102.550359,15.792 105.430359,14.256 C108.822359,12.464 115.094359,13.104 119.190359,8.368 C119.574359,7.92 119.766359,7.408 119.766359,6.704 C119.766359,6.064 119.574359,5.488 119.190359,4.976 L116.694359,1.776 C116.118359,1.008 115.414359,0.624 114.646359,0.624 C114.070359,0.624 113.366359,0.88 112.406359,1.392 C111.446359,1.968 109.846359,2.544 107.606359,3.12 C105.302359,3.76 103.382359,4.4 101.910359,5.104 C94.5503594,8.368 90.8383594,16.048 90.8383594,28.272 C90.8383594,39.6 96.7903594,46.768 106.774359,46.768 C111.382359,46.768 115.094359,45.296 117.910359,42.416 C120.726359,39.536 122.134359,36.016 122.134359,31.856 Z M101.078359,30.32 C102.166359,27.952 104.086359,26.8 106.902359,26.8 C113.494359,26.288 113.686359,38.32 106.518359,37.808 C103.126359,37.808 101.142359,34.416 101.078359,30.32 Z M134.242359,19.056 C133.730359,17.84 132.834359,17.2 131.618359,17.2 L126.434359,17.2 C124.834359,17.2 123.554359,18.544 123.554359,20.08 C123.554359,20.528 123.618359,20.976 123.810359,21.296 L134.818359,46 L134.178359,47.536 C133.474359,49.136 132.642359,49.968 131.682359,49.968 C130.850359,49.968 129.378359,49.456 128.930359,49.456 C127.842359,49.456 127.522359,49.904 126.818359,50.992 L125.410359,53.488 C125.154359,53.936 125.026359,54.384 125.026359,54.896 C125.026359,55.728 125.346359,56.432 126.050359,56.88 C128.034359,58.16 130.082359,58.8 132.130359,58.8 C134.562359,58.8 136.610359,57.904 138.274359,56.176 C139.874359,54.448 141.730359,51.056 143.778359,46 L153.378359,21.36 C153.506359,20.976 153.570359,20.592 153.570359,20.272 C153.570359,18.672 152.226359,17.2 150.498359,17.2 L145.954359,17.2 C144.738359,17.2 143.906359,17.84 143.522359,19.056 L140.258359,30.32 C139.938359,31.28 139.746359,32.624 139.554359,34.352 C139.106359,32.368 138.722359,31.088 138.466359,30.384 L134.242359,19.056 Z M176.326359,26.544 C176.774359,26.8 177.222359,26.928 177.734359,26.928 C178.694359,26.928 179.398359,26.48 179.910359,25.648 L181.766359,22.576 C182.022359,22.192 182.150359,21.808 182.150359,21.36 C182.150359,20.464 181.702359,19.696 180.742359,19.12 C177.990359,17.328 174.598359,16.432 170.694359,16.432 C166.214359,16.432 162.566359,17.904 159.750359,20.784 C156.870359,23.728 155.462359,27.312 155.462359,31.6 C155.462359,36.144 156.934359,39.856 159.814359,42.608 C162.694359,45.36 166.598359,46.768 171.462359,46.768 C175.302359,46.768 178.758359,45.552 181.766359,43.056 C182.470359,42.544 182.790359,41.84 182.790359,41.008 C182.790359,40.432 182.598359,39.92 182.278359,39.472 L180.294359,36.848 C179.782359,36.144 179.142359,35.824 178.310359,35.824 C177.670359,35.824 177.094359,36.016 176.518359,36.4 C175.046359,37.36 173.510359,37.808 172.038359,37.808 C168.774359,37.808 165.702359,35.248 165.702359,31.6 C165.702359,27.76 168.646359,25.392 171.910359,25.392 C173.318359,25.392 174.790359,25.776 176.326359,26.544 Z" id="глобус" fill="#667686"></path>
    </g>
</svg>