<?xml version="1.0" encoding="UTF-8"?>
<svg width="38px" height="47px" viewBox="0 0 38 47" version="1.1" xmlns="http://www.w3.org/2000/svg" xmlns:xlink="http://www.w3.org/1999/xlink">
    <!-- Generator: Sketch 41 (35326) - http://www.bohemiancoding.com/sketch -->
    <title>Shape</title>
    <desc>Created with Sketch.</desc>
    <defs></defs>
    <g id="Page-1" stroke="none" stroke-width="1" fill="none" fill-rule="evenodd">
        <g id="surface1" fill="#333333">
            <path d="M19,0 C12.363281,0 7,5.363281 7,12 L7,17 L3,17 C1.355469,17 0,18.355469 0,20 L0,44 C0,45.644531 1.355469,47 3,47 L35,47 C36.644531,47 38,45.644531 38,44 L38,20 C38,18.355469 36.644531,17 35,17 L31,17 L31,12 C31,5.363281 25.636719,0 19,0 Z M19,2 C24.566406,2 29,6.433594 29,12 L29,17 L9,17 L9,12 C9,6.433594 13.433594,2 19,2 Z M3,19 L35,19 C35.554688,19 36,19.445313 36,20 L36,44 C36,44.554688 35.554688,45 35,45 L3,45 C2.445313,45 2,44.554688 2,44 L2,20 C2,19.445313 2.445313,19 3,19 Z M19,27 C17.300781,27 16,28.300781 16,30 C16,30.898438 16.398438,31.6875 17,32.1875 L17,35 C17,36.101563 17.898438,37 19,37 C20.101563,37 21,36.101563 21,35 L21,32.1875 C21.601563,31.6875 22,30.898438 22,30 C22,28.300781 20.699219,27 19,27 Z" id="Shape"></path>
        </g>
    </g>
</svg>