<?xml version="1.0" encoding="UTF-8"?>
<svg width="1152px" height="1408px" viewBox="0 0 1152 1408" version="1.1" xmlns="http://www.w3.org/2000/svg" xmlns:xlink="http://www.w3.org/1999/xlink">
    <!-- Generator: Sketch 41 (35326) - http://www.bohemiancoding.com/sketch -->
    <title>Shape</title>
    <desc>Created with Sketch.</desc>
    <defs></defs>
    <g id="Page-1" stroke="none" stroke-width="1" fill="none" fill-rule="evenodd">
        <path d="M320,640 L832,640 L832,448 C832,377.333333 807,317 757,267 C707,217 646.666667,192 576,192 C505.333333,192 445,217 395,267 C345,317 320,377.333333 320,448 L320,640 Z M1152,736 L1152,1312 C1152,1338.66667 1142.66667,1361.33333 1124,1380 C1105.33333,1398.66667 1082.66667,1408 1056,1408 L96,1408 C69.3333333,1408 46.6666667,1398.66667 28,1380 C9.33333333,1361.33333 0,1338.66667 0,1312 L0,736 C0,709.333333 9.33333333,686.666667 28,668 C46.6666667,649.333333 69.3333333,640 96,640 L128,640 L128,448 C128,325.333333 172,220 260,132 C348,44 453.333333,0 576,0 C698.666667,0 804,44 892,132 C980,220 1024,325.333333 1024,448 L1024,640 L1056,640 C1082.66667,640 1105.33333,649.333333 1124,668 C1142.66667,686.666667 1152,709.333333 1152,736 Z" id="Shape" fill="#7E8C99"></path>
    </g>
</svg>