<?xml version="1.0" encoding="UTF-8"?>
<svg width="146px" height="35px" viewBox="0 0 146 35" version="1.1" xmlns="http://www.w3.org/2000/svg" xmlns:xlink="http://www.w3.org/1999/xlink">
    <!-- Generator: Sketch 41 (35326) - http://www.bohemiancoding.com/sketch -->
    <title>КЛИО</title>
    <desc>Created with Sketch.</desc>
    <defs></defs>
    <g id="Page-1" stroke="none" stroke-width="1" fill="none" fill-rule="evenodd">
        <path d="M29.95,29.55 C29.95,30.8500065 29.483338,31.999995 28.55,33 C27.616662,34.000005 26.450007,34.5 25.05,34.5 C24.249996,34.5 23.5333365,34.3416682 22.9,34.025 C22.2666635,33.7083317 21.750002,33.316669 21.35,32.85 L12.9,22.3 L10.8,24.8 L10.8,29.45 C10.8,30.8166735 10.3083383,31.999995 9.325,33 C8.34166175,34.000005 7.150007,34.5 5.75,34.5 C4.349993,34.5 3.15833825,34.000005 2.175,33 C1.19166175,31.999995 0.7,30.8166735 0.7,29.45 L0.7,5.2 C0.7,3.8333265 1.19166175,2.650005 2.175,1.65 C3.15833825,0.649995 4.349993,0.15 5.75,0.15 C7.150007,0.15 8.34166175,0.649995 9.325,1.65 C10.3083383,2.650005 10.8,3.8333265 10.8,5.2 L10.8,13.1 L20.75,1.7 C21.683338,0.6666615 22.849993,0.15 24.25,0.15 C25.6166735,0.15 26.7416623,0.6333285 27.625,1.6 C28.5083378,2.5666715 28.95,3.6666605 28.95,4.9 C28.95,6.1333395 28.583337,7.149996 27.85,7.95 L20.25,16.1 L28.85,26.45 C29.583337,27.2833375 29.95,28.3166605 29.95,29.55 Z M58.275,33 C57.2916618,31.999995 56.8,30.8166735 56.8,29.45 L56.8,9.45 L49.05,9.45 L48.85,12.1 C48.316664,18.900034 47.2416748,23.9749832 45.625,27.325 C44.0083253,30.6750167 41.8833465,32.916661 39.25,34.05 C38.5499965,34.3500015 37.7833375,34.5 36.95,34.5 C35.7166605,34.5 34.6416713,34.0250047 33.725,33.075 C32.8083288,32.1249952 32.35,30.98334 32.35,29.65 C32.35,28.6833285 32.5999975,27.8083372 33.1,27.025 C33.6000025,26.2416628 34.2666625,25.650002 35.1,25.25 C36.300006,24.649997 37.3749953,23.0583462 38.325,20.475 C39.2750048,17.8916538 39.8666655,14.4166885 40.1,10.05 L40.45,6.1 C40.6166675,4.3333245 41.1083293,2.983338 41.925,2.05 C42.7416708,1.116662 43.983325,0.65 45.65,0.65 L61.55,0.65 C63.283342,0.65 64.6083288,1.10832875 65.525,2.025 C66.4416712,2.94167125 66.9,4.266658 66.9,6 L66.9,29.45 C66.9,30.8166735 66.4083382,31.999995 65.425,33 C64.4416618,34.000005 63.250007,34.5 61.85,34.5 C60.449993,34.5 59.2583383,34.000005 58.275,33 Z M74.275,1.65 C75.2583383,0.649995 76.449993,0.15 77.85,0.15 C79.250007,0.15 80.4416618,0.649995 81.425,1.65 C82.4083383,2.650005 82.9,3.8333265 82.9,5.2 L82.9,19.45 L92.9,3.2 C93.500003,2.266662 94.2833285,1.52500275 95.25,0.975 C96.2166715,0.42499725 97.2833275,0.15 98.45,0.15 C99.6166725,0.15 100.691662,0.44166375 101.675,1.025 C102.658338,1.60833625 103.441664,2.39166175 104.025,3.375 C104.608336,4.35833825 104.9,5.4333275 104.9,6.6 L104.9,29.45 C104.9,30.8166735 104.408338,31.999995 103.425,33 C102.441662,34.000005 101.250007,34.5 99.85,34.5 C98.449993,34.5 97.2583383,34.000005 96.275,33 C95.2916618,31.999995 94.8,30.8166735 94.8,29.45 L94.8,14.1 L83.95,31.65 C83.416664,32.516671 82.7000045,33.2083308 81.8,33.725 C80.8999955,34.2416693 79.916672,34.5 78.85,34.5 C77.183325,34.5 75.7583393,33.9166725 74.575,32.75 C73.3916607,31.5833275 72.8,30.166675 72.8,28.5 L72.8,5.2 C72.8,3.8333265 73.2916618,2.650005 74.275,1.65 Z M111.4,8.4 C113.000008,5.7666535 115.191653,3.72500725 117.975,2.275 C120.758347,0.82499275 123.849983,0.1 127.25,0.1 C130.650017,0.1 133.741653,0.82499275 136.525,2.275 C139.308347,3.72500725 141.499992,5.7666535 143.1,8.4 C144.700008,11.0333465 145.5,14.01665 145.5,17.35 C145.5,20.68335 144.700008,23.6666535 143.1,26.3 C141.499992,28.9333465 139.308347,30.9749927 136.525,32.425 C133.741653,33.8750072 130.650017,34.6 127.25,34.6 C123.849983,34.6 120.758347,33.8750072 117.975,32.425 C115.191653,30.9749927 113.000008,28.9333465 111.4,26.3 C109.799992,23.6666535 109,20.68335 109,17.35 C109,14.01665 109.799992,11.0333465 111.4,8.4 Z M134.25,13.125 C133.58333,11.8416603 132.641673,10.833337 131.425,10.1 C130.208327,9.366663 128.816675,9 127.25,9 C125.683326,9 124.291673,9.366663 123.075,10.1 C121.858327,10.833337 120.91667,11.8416603 120.25,13.125 C119.58333,14.4083398 119.25,15.816659 119.25,17.35 C119.25,18.883341 119.58333,20.2916603 120.25,21.575 C120.91667,22.8583397 121.858327,23.866663 123.075,24.6 C124.291673,25.333337 125.683326,25.7 127.25,25.7 C128.816675,25.7 130.208327,25.333337 131.425,24.6 C132.641673,23.866663 133.58333,22.8583397 134.25,21.575 C134.91667,20.2916603 135.25,18.883341 135.25,17.35 C135.25,15.816659 134.91667,14.4083398 134.25,13.125 Z" id="КЛИО" fill="#444444"></path>
    </g>
</svg>