<?xml version="1.0" encoding="UTF-8"?>
<svg width="77px" height="74px" viewBox="0 0 77 74" version="1.1" xmlns="http://www.w3.org/2000/svg" xmlns:xlink="http://www.w3.org/1999/xlink">
    <!-- Generator: Sketch 41 (35326) - http://www.bohemiancoding.com/sketch -->
    <title>Fill 4</title>
    <desc>Created with Sketch.</desc>
    <defs></defs>
    <g id="Page-1" stroke="none" stroke-width="1" fill="none" fill-rule="evenodd">
        <g id="MailRu_Group_Logo" transform="translate(-24.000000, -17.000000)" fill="#FFA930">
            <path d="M75.521,53.64 C75.088,45.226 68.844,40.167 61.302,40.167 L61.018,40.167 C52.315,40.167 47.488,47.011 47.488,54.785 C47.488,63.491 53.328,68.989 60.984,68.989 C69.521,68.989 75.135,62.736 75.541,55.34 L75.521,53.64 Z M61.061,32.64 C66.876,32.64 72.343,35.21 76.358,39.234 L76.358,39.25 C76.358,37.317 77.658,35.861 79.464,35.861 L79.92,35.858 C82.745,35.858 83.324,38.531 83.324,39.377 L83.338,69.421 C83.139,71.386 85.368,72.401 86.604,71.141 C91.428,66.183 97.199,45.655 83.605,33.76 C70.935,22.671 53.936,24.499 44.895,30.73 C35.284,37.359 29.134,52.028 35.108,65.806 C41.62,80.838 60.255,85.318 71.33,80.849 C76.938,78.585 79.529,86.167 73.704,88.643 C64.903,92.394 40.408,92.016 28.965,72.194 C21.234,58.809 21.646,35.258 42.15,23.057 C57.836,13.724 78.516,16.309 90.986,29.333 C104.021,42.947 103.261,68.44 90.546,78.357 C84.786,82.858 76.23,78.475 76.285,71.913 L76.225,69.767 C72.214,73.748 66.876,76.07 61.061,76.07 C49.57,76.07 39.46,65.959 39.46,54.472 C39.46,42.867 49.57,32.64 61.061,32.64 L61.061,32.64 Z" id="Fill-4"></path>
        </g>
    </g>
</svg>