<?xml version="1.0" encoding="UTF-8"?>
<svg width="27px" height="40px" viewBox="0 0 27 40" version="1.1" xmlns="http://www.w3.org/2000/svg" xmlns:xlink="http://www.w3.org/1999/xlink">
    <!-- Generator: Sketch 41 (35326) - http://www.bohemiancoding.com/sketch -->
    <title>Shape</title>
    <desc>Created with Sketch.</desc>
    <defs></defs>
    <g id="Page-1" stroke="none" stroke-width="1" fill="none" fill-rule="evenodd">
        <g id="map-gray" fill="#D9D9D9">
            <g id="Page-1">
                <path d="M20,13.3333333 C20,11.4930556 19.3489583,9.921875 18.046875,8.61979167 C16.7447917,7.31770833 15.1736111,6.66666667 13.3333333,6.66666667 C11.4930556,6.66666667 9.921875,7.31770833 8.61979167,8.61979167 C7.31770833,9.921875 6.66666667,11.4930556 6.66666667,13.3333333 C6.66666667,15.1736111 7.31770833,16.7447917 8.61979167,18.046875 C9.921875,19.3489583 11.4930556,20 13.3333333,20 C15.1736111,20 16.7447917,19.3489583 18.046875,18.046875 C19.3489583,16.7447917 20,15.1736111 20,13.3333333 L20,13.3333333 Z M25.8072917,17.9947917 L16.328125,38.1510417 C16.0503472,38.7239583 15.6380208,39.1753472 15.0911458,39.5052083 C14.5442708,39.8350694 13.9583333,40 13.3333333,40 C12.7083333,40 12.1223958,39.8350694 11.5755208,39.5052083 C11.0286458,39.1753472 10.625,38.7239583 10.3645833,38.1510417 L0.859375,17.9947917 C0.286458333,16.7795139 0,15.2256944 0,13.3333333 C0,9.65277778 1.30208333,6.51041667 3.90625,3.90625 C6.51041667,1.30208333 9.65277778,0 13.3333333,0 C17.0138889,0 20.15625,1.30208333 22.7604167,3.90625 C25.3645833,6.51041667 26.6666667,9.65277778 26.6666667,13.3333333 C26.6666667,15.2256944 26.3802083,16.7795139 25.8072917,17.9947917 Z" id="Shape"></path>
            </g>
        </g>
    </g>
</svg>