<?xml version="1.0" encoding="UTF-8"?>
<svg width="404px" height="72px" viewBox="0 0 404 72" version="1.1" xmlns="http://www.w3.org/2000/svg" xmlns:xlink="http://www.w3.org/1999/xlink">
    <!-- Generator: Sketch 39.1 (31720) - http://www.bohemiancoding.com/sketch -->
    <title>mc_hrz_pos</title>
    <desc>Created with Sketch.</desc>
    <defs></defs>
    <g id="Page-1" stroke="none" stroke-width="1" fill="none" fill-rule="evenodd">
        <g id="mc_hrz_pos" transform="translate(-34.000000, -19.000000)">
            <g id="Group">
                <rect id="Rectangle-path" x="0.5" y="0" width="479" height="110"></rect>
                <g transform="translate(34.000000, 19.000000)">
                    <g id="XMLID_23_">
                        <rect id="Rectangle-path" fill="#E1E5E9" x="43.1" y="7.7" width="31.5" height="56.6"></rect>
                        <path d="M45.1,36 C45.1,24.5 50.5,14.3 58.8,7.7 C52.7,2.9 45,0 36.6,0 C16.7,0 0.6,16.1 0.6,36 C0.6,55.9 16.7,72 36.6,72 C45,72 52.7,69.1 58.8,64.3 C50.5,57.7 45.1,47.5 45.1,36 L45.1,36 Z" id="XMLID_35_" fill="#D8DEE3"></path>
                        <path d="M117.1,36 C117.1,55.9 101,72 81.1,72 C72.7,72 65,69.1 58.9,64.3 C67.3,57.7 72.6,47.5 72.6,36 C72.6,24.5 67.2,14.3 58.9,7.7 C65,2.9 72.7,0 81.1,0 C101,0 117.1,16.1 117.1,36 L117.1,36 Z" id="Shape" fill="#E6E9EC"></path>
                    </g>
                    <path d="M179.1,48.1 L179.1,33.1 C179.1,27.4 175.5,23.6 169.7,23.6 C166.6,23.6 163.5,24.5 161.3,27.9 C159.6,25.2 157,23.6 153.4,23.6 C150.8,23.6 148.3,24.4 146.4,27.2 L146.4,24.2 L141.2,24.2 L141.2,48.1 L146.5,48.1 L146.5,34.8 C146.5,30.6 148.8,28.4 152.4,28.4 C155.9,28.4 157.6,30.7 157.6,34.7 L157.6,48 L162.9,48 L162.9,34.7 C162.9,30.5 165.3,28.3 168.8,28.3 C172.4,28.3 174.1,30.6 174.1,34.6 L174.1,47.9 L179.1,47.9 L179.1,48.1 Z M256.9,24.2 L248.4,24.2 L248.4,16.9 L243.1,16.9 L243.1,24.2 L238.2,24.2 L238.2,29 L243.1,29 L243.1,39.9 C243.1,45.5 245.3,48.8 251.4,48.8 C253.7,48.8 256.3,48.1 257.9,46.9 L256.4,42.4 C254.8,43.3 253.1,43.8 251.8,43.8 C249.2,43.8 248.3,42.2 248.3,39.8 L248.3,29 L256.8,29 L256.8,24.2 L256.9,24.2 Z M301.3,23.6 C298.3,23.6 296.3,25 295,27.1 L295,24.2 L289.8,24.2 L289.8,48.1 L295,48.1 L295,34.7 C295,30.7 296.7,28.5 300.1,28.5 C301.2,28.5 302.3,28.7 303.4,29.1 L305,24.2 C303.9,23.8 302.4,23.6 301.3,23.6 L301.3,23.6 L301.3,23.6 Z M234.2,26.1 C231.7,24.4 228.2,23.6 224.4,23.6 C218.3,23.6 214.4,26.5 214.4,31.3 C214.4,35.2 217.3,37.6 222.7,38.4 L225.2,38.8 C228.1,39.2 229.4,40 229.4,41.3 C229.4,43.2 227.5,44.2 223.9,44.2 C220.3,44.2 217.7,43 215.9,41.7 L213.4,45.8 C216.3,47.9 219.9,48.9 223.8,48.9 C230.7,48.9 234.7,45.6 234.7,41.1 C234.7,36.9 231.5,34.7 226.3,33.9 L223.8,33.5 C221.5,33.2 219.7,32.7 219.7,31.1 C219.7,29.3 221.4,28.3 224.3,28.3 C227.4,28.3 230.3,29.5 231.8,30.4 L234.2,26.1 L234.2,26.1 Z M373.7,23.6 C370.7,23.6 368.7,25 367.4,27.1 L367.4,24.2 L362.2,24.2 L362.2,48.1 L367.4,48.1 L367.4,34.7 C367.4,30.7 369.1,28.5 372.5,28.5 C373.6,28.5 374.7,28.7 375.8,29.1 L377.4,24.2 C376.3,23.8 374.8,23.6 373.7,23.6 L373.7,23.6 L373.7,23.6 Z M306.6,36.2 C306.6,43.5 311.7,48.8 319.4,48.8 C323,48.8 325.4,48 328,45.9 L325.5,41.7 C323.5,43.1 321.5,43.9 319.2,43.9 C315,43.9 312,40.8 312,36.2 C312,31.6 315.1,28.6 319.2,28.5 C321.5,28.5 323.5,29.3 325.5,30.7 L328,26.5 C325.4,24.4 323,23.6 319.4,23.6 C311.7,23.6 306.6,28.9 306.6,36.2 L306.6,36.2 L306.6,36.2 Z M355.4,36.2 L355.4,24.2 L350.2,24.2 L350.2,27.1 C348.5,24.9 346,23.6 342.6,23.6 C335.9,23.6 330.6,28.9 330.6,36.2 C330.6,43.5 335.9,48.8 342.6,48.8 C346,48.8 348.5,47.4 350.2,45.3 L350.2,48.2 L355.4,48.2 L355.4,36.2 L355.4,36.2 Z M336,36.2 C336,32 338.8,28.5 343.3,28.5 C347.6,28.5 350.5,31.8 350.5,36.2 C350.5,40.6 347.6,43.9 343.3,43.9 C338.8,43.8 336,40.4 336,36.2 L336,36.2 L336,36.2 Z M273.1,23.6 C266.1,23.6 261.2,28.7 261.2,36.2 C261.2,43.8 266.3,48.8 273.5,48.8 C277.1,48.8 280.4,47.9 283.3,45.4 L280.7,41.5 C278.7,43.1 276.1,44 273.7,44 C270.3,44 267.3,42.4 266.5,38.1 L284.3,38.1 C284.4,37.4 284.4,36.8 284.4,36.1 C284.5,28.7 279.8,23.6 273.1,23.6 L273.1,23.6 L273.1,23.6 Z M273,28.2 C276.4,28.2 278.5,30.3 279.1,34 L266.7,34 C267.2,30.6 269.3,28.2 273,28.2 L273,28.2 L273,28.2 Z M403.7,36.2 L403.7,14.6 L398.5,14.6 L398.5,27.1 C396.8,24.9 394.3,23.6 390.9,23.6 C384.2,23.6 378.9,28.9 378.9,36.2 C378.9,43.5 384.2,48.8 390.9,48.8 C394.3,48.8 396.8,47.4 398.5,45.3 L398.5,48.2 L403.7,48.2 L403.7,36.2 L403.7,36.2 Z M384.3,36.2 C384.3,32 387.1,28.5 391.6,28.5 C395.9,28.5 398.8,31.8 398.8,36.2 C398.8,40.6 395.9,43.9 391.6,43.9 C387.1,43.8 384.3,40.4 384.3,36.2 L384.3,36.2 L384.3,36.2 Z M208.4,36.2 L208.4,24.2 L203.2,24.2 L203.2,27.1 C201.5,24.9 199,23.6 195.6,23.6 C188.9,23.6 183.6,28.9 183.6,36.2 C183.6,43.5 188.9,48.8 195.6,48.8 C199,48.8 201.5,47.4 203.2,45.3 L203.2,48.2 L208.4,48.2 L208.4,36.2 L208.4,36.2 Z M189,36.2 C189,32 191.8,28.5 196.3,28.5 C200.6,28.5 203.5,31.8 203.5,36.2 C203.5,40.6 200.6,43.9 196.3,43.9 C191.8,43.8 189,40.4 189,36.2 L189,36.2 Z" id="XMLID_622_" fill="#E6E9EC"></path>
                </g>
            </g>
        </g>
    </g>
</svg>