<?xml version="1.0" encoding="UTF-8"?>
<svg width="38px" height="48px" viewBox="0 0 38 48" version="1.1" xmlns="http://www.w3.org/2000/svg" xmlns:xlink="http://www.w3.org/1999/xlink">
    <!-- Generator: Sketch 41 (35326) - http://www.bohemiancoding.com/sketch -->
    <title>Shape</title>
    <desc>Created with Sketch.</desc>
    <defs></defs>
    <g id="Page-1" stroke="none" stroke-width="1" fill="none" fill-rule="evenodd">
        <g id="surface1" fill="#FFD16D">
            <path d="M3,0 C1.347656,0 0,1.347656 0,3 L0,45 C0,46.652344 1.347656,48 3,48 L35,48 C36.652344,48 38,46.652344 38,45 L38,3 C38,1.347656 36.652344,0 35,0 L3,0 Z M19,8 C25.066406,8 30,12.933594 30,19 C30,25.066406 25.066406,30 19,30 C12.933594,30 8,25.066406 8,19 C8,12.933594 12.933594,8 19,8 Z M18,10.34375 C16.558594,11.28125 15.230469,14.128906 15.03125,18 L18,18 L18,10.34375 Z M20,10.34375 L20,18 L22.96875,18 C22.769531,14.128906 21.441406,11.28125 20,10.34375 Z M14.78125,11.0625 C12.226563,12.429688 10.398438,14.992188 10.0625,18 L13.03125,18 C13.15625,15.234375 13.796875,12.824219 14.78125,11.0625 Z M23.21875,11.0625 C24.203125,12.824219 24.84375,15.234375 24.96875,18 L27.9375,18 C27.601563,14.992188 25.777344,12.429688 23.21875,11.0625 Z M10.0625,20 C10.398438,23.007813 12.226563,25.570313 14.78125,26.9375 C13.796875,25.175781 13.15625,22.765625 13.03125,20 L10.0625,20 Z M15.03125,20 C15.230469,23.871094 16.558594,26.71875 18,27.65625 L18,20 L15.03125,20 Z M20,20 L20,27.65625 C21.441406,26.722656 22.769531,23.871094 22.96875,20 L20,20 Z M24.96875,20 C24.84375,22.765625 24.203125,25.175781 23.21875,26.9375 C25.773438,25.570313 27.601563,23.007813 27.9375,20 L24.96875,20 Z M7,37 L31,37 C31.554688,37 32,37.445313 32,38 C32,38.554688 31.554688,39 31,39 L7,39 C6.449219,39 6,38.554688 6,38 C6,37.445313 6.449219,37 7,37 Z" id="Shape"></path>
        </g>
    </g>
</svg>