<?xml version="1.0" encoding="UTF-8"?>
<svg width="121px" height="17px" viewBox="0 0 121 17" version="1.1" xmlns="http://www.w3.org/2000/svg" xmlns:xlink="http://www.w3.org/1999/xlink">
    <!-- Generator: Sketch 41 (35326) - http://www.bohemiancoding.com/sketch -->
    <title>payments-3</title>
    <desc>Created with Sketch.</desc>
    <defs>
        <polygon id="path-1" points="10.956 0.676 0.268 0.676 0.268 13.976 10.956 13.976"></polygon>
        <polygon id="path-3" points="10.983 0.676 0.296 0.676 0.296 13.976 10.983 13.976"></polygon>
    </defs>
    <g id="Page-1" stroke="none" stroke-width="1" fill="none" fill-rule="evenodd">
        <g id="payments-3">
            <g id="Layer_3">
                <g id="Group-4">
                    <g id="Group" transform="translate(0.000000, 6.000000)">
                        <g id="Visa">
                            <polyline id="Fill-2" fill="#004F8B" points="9.786 8.547 11.15 0.813 13.333 0.813 11.967 8.547 9.786 8.547"></polyline>
                            <path d="M19.884,1.003 C19.452,0.846 18.774,0.678 17.928,0.678 C15.771,0.678 14.252,1.727 14.239,3.23 C14.227,4.341 15.324,4.961 16.152,5.332 C17.002,5.711 17.288,5.953 17.283,6.291 C17.278,6.81 16.605,7.047 15.977,7.047 C15.103,7.047 14.639,6.93 13.922,6.641 L13.641,6.518 L13.334,8.248 C13.844,8.465 14.787,8.652 15.766,8.661 C18.06,8.661 19.55,7.625 19.567,6.019 C19.575,5.139 18.993,4.469 17.734,3.917 C16.971,3.56 16.504,3.32 16.509,2.958 C16.509,2.637 16.905,2.293 17.759,2.293 C18.473,2.282 18.99,2.433 19.393,2.589 L19.588,2.678 L19.884,1.003" id="Fill-3" fill="#004F8B"></path>
                            <path d="M25.482,0.82 L23.795,0.82 C23.272,0.82 22.881,0.958 22.652,1.461 L19.41,8.548 L21.702,8.548 C21.702,8.548 22.077,7.595 22.161,7.386 C22.411,7.386 24.638,7.39 24.956,7.39 C25.021,7.661 25.222,8.548 25.222,8.548 L27.247,8.548 L25.482,0.82 M22.791,5.805 C22.971,5.36 23.661,3.643 23.661,3.643 C23.648,3.664 23.84,3.196 23.95,2.906 L24.098,3.573 C24.098,3.573 24.516,5.419 24.603,5.805 L22.791,5.805" id="Fill-4" fill="#004F8B"></path>
                            <path d="M7.955,0.818 L5.818,6.091 L5.59,5.02 C5.193,3.785 3.953,2.446 2.567,1.776 L4.521,8.54 L6.831,8.537 L10.268,0.818 L7.955,0.818" id="Fill-5" fill="#004F8B"></path>
                            <path d="M3.835,0.814 L0.315,0.814 L0.287,0.975 C3.025,1.615 4.837,3.162 5.589,5.021 L4.824,1.467 C4.692,0.977 4.309,0.831 3.835,0.814" id="Fill-6" fill="#EE9F2D"></path>
                        </g>
                    </g>
                    <g id="Page-1" transform="translate(38.000000, 3.000000)">
                        <g id="Group-3" transform="translate(0.000000, 0.079154)">
                            <g id="Fill-1-Clipped">
                                <mask id="mask-2" fill="white">
                                    <use xlink:href="#path-1"></use>
                                </mask>
                                <g id="path-1"></g>
                                <path d="M8.451,7.326 C8.451,5.212 9.43,3.33 10.956,2.112 C9.831,1.214 8.411,0.676 6.864,0.676 C3.221,0.676 0.268,3.653 0.268,7.326 C0.268,10.999 3.221,13.975 6.864,13.975 C8.41,13.975 9.831,13.438 10.956,12.539 C9.431,11.322 8.451,9.44 8.451,7.326" id="Fill-1" fill="#E30E17" mask="url(#mask-2)"></path>
                            </g>
                        </g>
                        <path d="M8.451,7.405 C8.451,9.519 9.43,11.401 10.956,12.619 C12.481,11.401 13.46,9.519 13.46,7.405 C13.46,5.291 12.481,3.409 10.956,2.191 C9.431,3.409 8.451,5.291 8.451,7.405" id="Fill-4_1_" fill="#EB600A"></path>
                        <path d="M21.61,11.059 L21.61,10.848 L21.554,11.03 L21.493,11.03 L21.438,10.848 L21.438,11.059 L21.38,11.059 L21.38,10.754 L21.463,10.754 L21.524,10.949 L21.585,10.754 L21.668,10.754 L21.668,11.059 L21.61,11.059 Z M21.196,11.059 L21.196,10.82 L21.118,10.82 L21.118,10.755 L21.332,10.755 L21.332,10.82 L21.254,10.82 L21.254,11.059 L21.196,11.059 Z" id="Fill-6_1_" fill="#F59F00"></path>
                        <g id="Group-10" transform="translate(10.660400, 0.079154)">
                            <g id="Fill-8-Clipped">
                                <mask id="mask-4" fill="white">
                                    <use xlink:href="#path-3"></use>
                                </mask>
                                <g id="path-3"></g>
                                <path d="M4.387,0.676 C2.841,0.676 1.42,1.214 0.296,2.112 C1.821,3.33 2.8,5.212 2.8,7.326 C2.8,9.44 1.821,11.322 0.296,12.54 C1.421,13.438 2.841,13.976 4.387,13.976 C8.03,13.976 10.983,10.999 10.983,7.327 C10.983,3.655 8.03,0.676 4.387,0.676" id="Fill-8" fill="#F59F00" mask="url(#mask-4)"></path>
                            </g>
                        </g>
                    </g>
                    <g id="Group-2" transform="translate(108.000000, 0.000000)">
                        <path d="M2.068,5.438 C3.714,4.221 8.988,0.061 8.988,0.061 L8.988,7.006 L13,7.006 L13,17 L1.253,17 C0.564,17 0,16.441 0,15.758 L0,8.463 C0,7.512 0.08,6.908 2.068,5.438 Z" id="Fill-1_1_" fill="#FFCE00"></path>
                        <polygon id="Fill-4_2_" fill="#B97A0B" points="9.004 6.998 9.021 11.045 1.614 15.739 10.998 12.916 10.98 6.998"></polygon>
                        <path d="M5.373,6.529 C5.804,6.029 6.432,5.852 6.777,6.134 C7.121,6.417 7.052,7.051 6.623,7.552 C6.194,8.053 5.564,8.23 5.22,7.947 C4.876,7.664 4.943,7.03 5.373,6.529" id="Fill-5_1_" fill="#221F20"></path>
                    </g>
                </g>
            </g>
            <g id="Layer_2" transform="translate(71.000000, 6.000000)">
                <g id="Group">
                    <path d="M15.185,1.583 L13.5,5.234 L13.329,5.234 L13.329,0.789 L10.935,0.789 L10.935,8.312 L12.966,8.312 C13.501,8.312 13.986,8.001 14.209,7.517 L15.895,3.867 L16.066,3.867 L16.066,8.312 L18.461,8.312 L18.461,0.789 L16.428,0.789 C15.894,0.789 15.408,1.099 15.185,1.583" id="Shape" fill="#20AA4D"></path>
                    <path d="M6.203,1.777 L5.207,5.235 L5.036,5.235 L4.038,1.777 C3.871,1.191 3.333,0.788 2.725,0.788 L0.334,0.788 L0.334,8.312 L2.729,8.312 L2.729,3.866 L2.898,3.866 L4.267,8.311 L5.977,8.311 L7.345,3.866 L7.516,3.866 L7.516,8.311 L9.911,8.311 L9.911,0.788 L7.519,0.788 C6.909,0.788 6.372,1.191 6.203,1.777" id="Shape" fill="#20AA4D"></path>
                    <path d="M19.484,4.208 L19.484,8.312 L21.874,8.312 L21.874,5.918 L24.443,5.918 C25.56,5.918 26.506,5.203 26.859,4.208 L19.484,4.208 L19.484,4.208 Z" id="Shape" fill="#20AA4D"></path>
                    <path d="M24.443,0.788 L19.143,0.788 C19.465,2.539 20.997,3.867 22.841,3.867 L26.957,3.867 C26.99,3.701 27.008,3.53 27.008,3.353 C27.008,1.936 25.86,0.788 24.443,0.788" id="Shape" fill="#00A7E3"></path>
                </g>
            </g>
        </g>
    </g>
</svg>