<?xml version="1.0" encoding="UTF-8"?>
<svg width="40px" height="40px" viewBox="0 0 40 40" version="1.1" xmlns="http://www.w3.org/2000/svg" xmlns:xlink="http://www.w3.org/1999/xlink">
    <!-- Generator: Sketch 39.1 (31720) - http://www.bohemiancoding.com/sketch -->
    <title>Shape</title>
    <desc>Created with Sketch.</desc>
    <defs></defs>
    <g id="Page-1" stroke="none" stroke-width="1" fill="none" fill-rule="evenodd" fill-opacity="0.49926404">
        <path d="M27.6923077,16.9230769 C27.6923077,13.9583333 26.6386218,11.4222756 24.53125,9.31490385 C22.4238782,7.20753205 19.8878205,6.15384615 16.9230769,6.15384615 C13.9583333,6.15384615 11.4222756,7.20753205 9.31490385,9.31490385 C7.20753205,11.4222756 6.15384615,13.9583333 6.15384615,16.9230769 C6.15384615,19.8878205 7.20753205,22.4238782 9.31490385,24.53125 C11.4222756,26.6386218 13.9583333,27.6923077 16.9230769,27.6923077 C19.8878205,27.6923077 22.4238782,26.6386218 24.53125,24.53125 C26.6386218,22.4238782 27.6923077,19.8878205 27.6923077,16.9230769 L27.6923077,16.9230769 Z M40,36.9230769 C40,37.7564103 39.6955128,38.4775641 39.0865385,39.0865385 C38.4775641,39.6955128 37.7564103,40 36.9230769,40 C36.0576923,40 35.3365385,39.6955128 34.7596154,39.0865385 L26.5144231,30.8653846 C23.6458333,32.8525641 20.4487179,33.8461538 16.9230769,33.8461538 C14.6314103,33.8461538 12.4399038,33.4014423 10.3485577,32.5120192 C8.25721154,31.6225962 6.45432692,30.4206731 4.93990385,28.90625 C3.42548077,27.3918269 2.22355769,25.5889423 1.33413462,23.4975962 C0.444711538,21.40625 0,19.2147436 0,16.9230769 C0,14.6314103 0.444711538,12.4399038 1.33413462,10.3485577 C2.22355769,8.25721154 3.42548077,6.45432692 4.93990385,4.93990385 C6.45432692,3.42548077 8.25721154,2.22355769 10.3485577,1.33413462 C12.4399038,0.444711538 14.6314103,0 16.9230769,0 C19.2147436,0 21.40625,0.444711538 23.4975962,1.33413462 C25.5889423,2.22355769 27.3918269,3.42548077 28.90625,4.93990385 C30.4206731,6.45432692 31.6225962,8.25721154 32.5120192,10.3485577 C33.4014423,12.4399038 33.8461538,14.6314103 33.8461538,16.9230769 C33.8461538,20.4487179 32.8525641,23.6458333 30.8653846,26.5144231 L39.1105769,34.7596154 C39.7035256,35.3525641 40,36.0737179 40,36.9230769 L40,36.9230769 Z" id="Shape" fill="#3F86D3"></path>
    </g>
</svg>