<?xml version="1.0" encoding="UTF-8"?>
<svg width="44px" height="50px" viewBox="0 0 44 50" version="1.1" xmlns="http://www.w3.org/2000/svg" xmlns:xlink="http://www.w3.org/1999/xlink">
    <!-- Generator: Sketch 41 (35326) - http://www.bohemiancoding.com/sketch -->
    <title>Shape</title>
    <desc>Created with Sketch.</desc>
    <defs></defs>
    <g id="Page-1" stroke="none" stroke-width="1" fill="none" fill-rule="evenodd">
        <g id="surface1" fill="#333333">
            <path d="M22,0 C19.546875,0 17.476563,1.355469 14.40625,2.9375 C11.335938,4.519531 7.214844,6.429688 0.78125,7.84375 L0,8.03125 L0,8.8125 C0,24.132813 5.371094,34.371094 10.75,40.71875 C16.128906,47.066406 21.59375,49.59375 21.59375,49.59375 L22.03125,49.8125 L22.46875,49.59375 C22.46875,49.59375 44,38.46875 44,8.8125 L44,8.03125 L43.21875,7.84375 C36.785156,6.429688 32.664063,4.519531 29.59375,2.9375 C26.523438,1.355469 24.453125,0 22,0 Z M22,2 C23.644531,2 25.550781,3.105469 28.6875,4.71875 C31.667969,6.25 35.859375,8.128906 41.9375,9.5625 C41.570313,36.679688 23.253906,46.851563 21.96875,47.53125 C21.347656,47.230469 17.019531,45.066406 12.25,39.4375 C7.222656,33.503906 2.246094,23.960938 2.0625,9.5625 C8.140625,8.128906 12.332031,6.25 15.3125,4.71875 C18.449219,3.105469 20.355469,2 22,2 Z M16.40625,17.4375 C14.265625,17.4375 13.0625,18.839844 13.0625,20.625 C13.0625,21.867188 13.945313,23.027344 15.21875,23.84375 C16.152344,24.492188 16.71875,25.019531 16.71875,25.9375 C16.71875,26.890625 16.089844,27.53125 14.96875,27.53125 C14.375,27.53125 13.644531,27.316406 13.21875,27.0625 L12.90625,28.625 C13.261719,28.863281 14.117188,29.09375 14.96875,29.09375 C17.027344,29.09375 18.5,27.808594 18.5,25.75 C18.5,24.527344 17.914063,23.417969 16.46875,22.46875 C15.296875,21.722656 14.84375,21.289063 14.84375,20.40625 C14.84375,19.707031 15.339844,19.03125 16.375,19.03125 C16.988281,19.03125 17.457031,19.203125 17.78125,19.40625 L18.09375,17.84375 C17.789063,17.65625 17.136719,17.4375 16.40625,17.4375 Z M22.84375,17.4375 C20.703125,17.4375 19.5,18.839844 19.5,20.625 C19.5,21.867188 20.382813,23.027344 21.65625,23.84375 C22.589844,24.492188 23.15625,25.019531 23.15625,25.9375 C23.15625,26.890625 22.558594,27.53125 21.4375,27.53125 C20.84375,27.53125 20.082031,27.316406 19.65625,27.0625 L19.34375,28.625 C19.699219,28.863281 20.554688,29.09375 21.40625,29.09375 C23.464844,29.09375 24.9375,27.808594 24.9375,25.75 C24.9375,24.527344 24.351563,23.417969 22.90625,22.46875 C21.734375,21.722656 21.28125,21.289063 21.28125,20.40625 C21.28125,19.707031 21.777344,19.03125 22.8125,19.03125 C23.425781,19.03125 23.894531,19.203125 24.21875,19.40625 L24.5625,17.84375 C24.257813,17.65625 23.574219,17.4375 22.84375,17.4375 Z M26.34375,17.53125 L26.34375,29 L31.21875,29 L31.21875,27.46875 L28.15625,27.46875 L28.15625,17.53125 L26.34375,17.53125 Z" id="Shape"></path>
        </g>
    </g>
</svg>