<?xml version="1.0" encoding="UTF-8"?>
<svg width="89px" height="27px" viewBox="0 0 89 27" version="1.1" xmlns="http://www.w3.org/2000/svg" xmlns:xlink="http://www.w3.org/1999/xlink">
    <!-- Generator: Sketch 39.1 (31720) - http://www.bohemiancoding.com/sketch -->
    <title>Logo_Visa</title>
    <desc>Created with Sketch.</desc>
    <defs></defs>
    <g id="Page-1" stroke="none" stroke-width="1" fill="none" fill-rule="evenodd">
        <g id="Logo_Visa" fill="#E6EAED">
            <g id="g5088">
                <polygon id="polygon10" points="31.0183 26.6077 35.4754 0.453591 42.6041 0.453591 38.1441 26.6077"></polygon>
                <path d="M63.9988,1.09833 C62.58648,0.567483 60.37334,0 57.60947,0 C50.56588,-0.000710068 45.60377,3.54707 45.56177,8.63087 C45.522148,12.38869 49.10401,14.48524 51.80809,15.73623 C54.58289,17.01719 55.51564,17.83547 55.50243,18.98039 C55.484962,20.73255 53.28659,21.53422 51.23762,21.53422 C48.38443,21.533936 46.86857,21.138002 44.52748,20.16152 L43.608936,19.745136 L42.608446,25.599926 C44.273696,26.330302 47.352406,26.962976 50.549136,26.995916 C58.042626,26.99549 62.907136,23.489316 62.962436,18.060706 C62.989419,15.085096 61.090126,12.821396 56.977556,10.954776 C54.485926,9.744256 52.959706,8.937616 52.975896,7.712606 C52.976038,6.625206 54.267506,5.462966 57.058216,5.462966 C59.389656,5.4259005 61.077906,5.935019 62.393526,6.464876 L63.032587,6.766087 L63.998847,1.098327 L63.9988,1.09833 L63.9988,1.09833 Z" id="path12"></path>
                <path d="M82.279,0.478444 L76.77015,0.478444 C75.06386,0.478444 73.78673,0.945243 73.03718,2.648414 L62.45038,26.615614 L69.93577,26.615614 C69.93577,26.615614 71.15993,23.393464 71.43685,22.686104 C72.255132,22.686104 79.52665,22.697323 80.56619,22.697323 C80.779778,23.6126 81.433609,26.616183 81.433609,26.616183 L88.048739,26.615615 L82.279009,0.47841505 L82.279,0.478444 Z M73.488229,17.336115 C74.077869,15.829065 76.328359,10.025685 76.328359,10.025685 C76.286607,10.094846 76.913455,8.511395 77.273601,7.529515 L77.756021,9.783695 C77.756021,9.783695 79.120491,16.027325 79.405791,17.336545 L73.488231,17.336119 L73.488229,17.336115 L73.488229,17.336115 Z" id="path14"></path>
                <path d="M25.0395,0.472763 L18.06053,18.307863 L17.316805,14.683823 C16.017665,10.505213 11.969285,5.979243 7.443735,3.713023 L13.825395,26.585123 L21.367735,26.576176 L32.590535,0.47277615 L25.039535,0.47277615 L25.0395,0.472763 L25.0395,0.472763 Z" id="path16"></path>
                <path d="M11.586,0.457 L0.091,0.457 L-3.07e-05,1.00148 C8.9428493,3.16577 14.860269,8.39797 17.316669,14.68378 L14.817089,2.66528 C14.385652,1.00926 13.133949,0.51519 11.585999,0.45697 L11.586,0.457 L11.586,0.457 Z" id="path18"></path>
            </g>
        </g>
    </g>
</svg>